<svg width="190" height="32" viewBox="0 0 190 32" xmlns="http://www.w3.org/2000/svg" xmlns:xlink="http://www.w3.org/1999/xlink">
    <defs>
        <path id="a" d="M23.337.128H.195v23.418h23.142V.128z"></path>
        <path id="c" d="M.217 14.373h14.28V.16H.217v14.213z"></path>
        <path id="e" d="M.095 14.373h14.28V.16H.095v14.213z"></path>
    </defs>
    <g fill="none" fill-rule="evenodd">
        <path d="M176.855 5.204h3.515c1.238 0 2.242 1.015 2.242 2.27 0 1.254-1.004 2.27-2.242 2.27h-3.515v-4.54zm13.054 17.883l-5.526-9.85c2.703-1.19 3.433-3.432 3.433-6.16 0-2.94-1.697-6.08-6.955-6.08h-9.318v22.1h5.31v-9.145h2.923l4.364 9.135h5.77zM129.952 23.098L117.66 9.068v14.03h-5.31V.996h4.282l10.922 12.472V.996h5.31v22.102M65.622 23.098L53.33 9.068v14.03h-5.31V.996h4.283l10.92 12.472V.996h5.312v22.102M10.943 16.466c0 1.387-1.112 2.512-2.482 2.512H5.31v-5.026h3.15c1.37 0 2.483 1.124 2.483 2.51v.004zM5.31 5.116h2.287c1.286 0 2.328 1.056 2.328 2.356v.003c0 1.302-1.042 2.356-2.328 2.356H5.31V5.118zM16.4 16.952c0-4.48-3.32-5.685-3.32-5.685s1.943-1.15 1.943-4.057c0-3.313-1.81-6.212-7.07-6.212H0v22.102h10.07c3.35 0 6.33-2.383 6.33-6.147zM78.452 23.098V.996h13.11V5.36h-7.798v4.137h6.343v4.364h-6.343v4.875h8.047v4.363" fill="#fff"></path>
        <g transform="translate(140.423 .143)">
            <mask id="b" fill="#fff">
                <use xlink:href="#a"></use>
            </mask>
            <path d="M11.766 18.472c-3.62 0-6.557-2.97-6.557-6.635 0-3.664 2.935-6.635 6.556-6.635 3.62 0 6.557 2.97 6.557 6.635 0 3.665-2.936 6.635-6.557 6.635m0-18.344C5.376.128.196 5.37.196 11.838c0 6.466 5.18 11.708 11.57 11.708 6.39 0 11.57-5.242 11.57-11.71 0-6.465-5.18-11.708-11.57-11.708" fill="#fff" mask="url(#b)"></path>
        </g>
        <path d="M26.873 13.89V9.513c0-2.462 1.972-4.457 4.405-4.457h.005c2.433 0 4.405 1.995 4.405 4.457v4.377h-8.815z" fill="#fff"></path>
        <g transform="translate(14.74 17.5)">
            <mask id="d" fill="#fff"><use xlink:href="#c"></use></mask>
            <path fill="#fff" mask="url(#d)" d="M10.332.16L.217 14.374H6.79L14.498.16"></path>
        </g>
        <g transform="translate(33.23 17.5)">
            <mask id="f" fill="#fff"><use xlink:href="#e"></use></mask>
            <path fill="#fff" mask="url(#f)" d="M4.26.16H.095L7.8 14.374h6.575"></path>
        </g>
    </g>
</svg>